<svg width="100%" height="100%" viewBox="0 0 86 67"
    style="fill-rule:evenodd;clip-rule:evenodd;stroke-linejoin:round;stroke-miterlimit:2;">
    <path
        d="M64.398,-0c3.918,-0 7.155,0.767 9.711,2.3c2.555,1.533 4.685,3.578 6.388,6.133c1.874,2.726 3.11,5.792 3.706,9.2c0.596,3.407 0.894,6.474 0.894,9.199c0,8.348 -2.129,16.015 -6.388,23c-4.26,6.985 -10.904,12.607 -19.933,16.866l-2.3,-4.6c5.111,-2.215 9.54,-5.622 13.288,-10.222c3.748,-4.6 5.793,-9.285 6.134,-14.055c0.17,-2.555 -0,-4.941 -0.511,-7.155c-3.067,2.896 -6.815,4.344 -11.245,4.344c-4.94,-0 -9.114,-1.533 -12.521,-4.6c-3.408,-3.066 -5.111,-7.326 -5.111,-12.777c-0,-5.282 1.746,-9.541 5.238,-12.778c3.493,-3.237 7.709,-4.855 12.65,-4.855Zm-46.51,-0c3.919,-0 7.156,0.767 9.711,2.3c2.556,1.533 4.685,3.578 6.389,6.133c1.874,2.726 3.109,5.792 3.705,9.2c0.597,3.407 0.895,6.474 0.895,9.199c-0,8.348 -2.13,16.015 -6.389,23c-4.259,6.985 -10.903,12.607 -19.933,16.866l-2.3,-4.6c5.111,-2.215 9.541,-5.622 13.289,-10.222c3.748,-4.6 5.792,-9.285 6.133,-14.055c0.17,-2.555 -0,-4.941 -0.511,-7.155c-3.067,2.896 -6.815,4.344 -11.244,4.344c-4.941,-0 -9.115,-1.533 -12.522,-4.6c-3.407,-3.066 -5.111,-7.326 -5.111,-12.777c-0,-5.282 1.746,-9.541 5.239,-12.778c3.492,-3.237 7.709,-4.855 12.649,-4.855Z"
        style="fill:#fff;fill-rule:nonzero;" />
</svg>